# This file uses centimeters as units for non-parametric coordinates.

mtllib fairyScene_grassLantern.mtl
g default
v 4.899557 0.014583 0.685959
v 5.899557 0.014583 0.685959
v 5.899557 0.014583 1.685959
v 4.899557 0.014583 1.685959
v 5.984333 0.005470 0.601183
v 4.814781 0.005470 0.601183
v 5.984333 0.005470 1.770735
v 4.814781 0.005470 1.770735
v 4.727987 1.883448 1.857529
v 6.071127 1.883448 1.857529
v 6.071127 1.883448 0.514389
v 4.727987 1.883448 0.514389
v 4.999557 1.794240 0.685959
v 5.799557 1.794240 0.685959
v 5.799557 0.222070 0.685959
v 4.999557 0.222070 0.685959
v 4.999557 1.794240 0.722959
v 5.799557 1.794240 0.722959
v 5.799557 0.222070 0.722959
v 4.999557 0.222070 0.722959
v 5.899557 0.222070 0.785959
v 5.899557 0.222070 1.585959
v 5.899557 1.794240 0.785959
v 5.899557 1.794240 1.585959
v 4.999557 0.222070 1.685959
v 5.799557 0.222070 1.685959
v 5.799557 1.794240 1.685959
v 4.999557 1.794240 1.685959
v 4.899557 0.222070 0.785959
v 4.899557 0.222070 1.585959
v 4.899557 1.794240 1.585959
v 4.899557 1.794240 0.785959
v 4.936557 0.222070 0.785959
v 4.936557 0.222070 1.585959
v 4.936557 1.794240 1.585959
v 4.936557 1.794240 0.785959
v 5.862557 0.222070 0.785959
v 5.862557 0.222070 1.585959
v 5.862557 1.794240 0.785959
v 5.862557 1.794240 1.585959
v 4.999557 0.222070 1.648959
v 5.799557 0.222070 1.648959
v 5.799557 1.794240 1.648959
v 4.999557 1.794240 1.648959
v 6.058872 1.965777 1.845274
v 6.071127 1.955492 1.857529
v 4.727987 1.955492 1.857529
v 4.740243 1.965777 1.845274
v 6.058872 1.965777 0.526644
v 6.071127 1.955492 0.514389
v 4.740243 1.965777 0.526644
v 4.727987 1.955492 0.514389
v 4.785590 1.965913 1.799926
v 4.796684 1.965829 1.796247
v 4.789269 1.965829 1.788832
v 5.392142 2.325229 1.185959
v 5.399557 2.325229 1.193374
v 6.013524 1.965913 1.799926
v 6.009845 1.965829 1.788832
v 6.002430 1.965829 1.796247
v 5.406973 2.325229 1.185959
v 6.013524 1.965913 0.571992
v 6.002430 1.965829 0.575671
v 6.009845 1.965829 0.583086
v 5.399557 2.325229 1.178543
v 4.785590 1.965913 0.571992
v 4.789269 1.965829 0.583086
v 4.796684 1.965829 0.575671
v 4.831735 0.129360 0.618136
v 4.814781 0.114132 0.601183
v 5.984333 0.114132 0.601183
v 5.967380 0.129360 0.618136
v 5.984333 0.114132 1.770735
v 5.967380 0.129360 1.753781
v 4.814781 0.114132 1.770735
v 4.831735 0.129360 1.753781
v 4.889558 0.123145 1.695958
v 4.913698 0.122070 1.685959
v 4.899557 0.122070 1.671818
v 4.899557 1.874242 1.665961
v 4.919555 1.874242 1.685959
v 4.913698 1.894240 1.685959
v 4.889558 1.893611 1.695958
v 4.899557 1.894240 1.671818
v 5.909556 0.123145 1.695958
v 5.899557 0.122070 1.671818
v 5.885417 0.122070 1.685959
v 5.879559 1.874242 1.685959
v 5.899557 1.874242 1.665961
v 5.899557 1.894240 1.671818
v 5.909556 1.893611 1.695958
v 5.885417 1.894240 1.685959
v 4.899557 1.874242 0.705957
v 4.899557 1.894240 0.700099
v 4.889558 1.893611 0.675960
v 4.913698 1.894240 0.685959
v 4.919555 1.874242 0.685959
v 4.889558 0.123145 0.675960
v 4.899557 0.122070 0.700099
v 4.913698 0.122070 0.685959
v 5.899557 1.874242 0.705957
v 5.879559 1.874242 0.685959
v 5.885417 1.894240 0.685959
v 5.909556 1.893611 0.675960
v 5.899557 1.894240 0.700099
v 5.909556 0.123145 0.675960
v 5.885417 0.122070 0.685959
v 5.899557 0.122070 0.700099
vt 0.267365 0.361100
vt 0.445607 0.361100
vt 0.445607 0.726195
vt 0.267365 0.726195
vt 0.918389 0.726310
vt 0.740151 0.726310
vt 0.740151 0.360993
vt 0.918389 0.360993
vt 0.279371 0.031649
vt 0.436609 0.031649
vt 0.436609 0.307568
vt 0.279371 0.307568
vt 0.503761 0.361025
vt 0.681997 0.361025
vt 0.681997 0.726279
vt 0.503761 0.726279
vt 0.030968 0.361021
vt 0.209211 0.361021
vt 0.209211 0.726343
vt 0.030968 0.726343
vt 0.256237 0.770615
vt 0.456766 0.770615
vt 0.456766 0.978540
vt 0.256237 0.978540
vt 0.453971 0.774106
vt 0.453971 0.975050
vt 0.258914 0.975050
vt 0.264871 0.781409
vt 0.258914 0.774106
vt 0.353028 0.867587
vt 0.360192 0.874568
vt 0.352801 0.881549
vt 0.345637 0.874568
vt 0.264871 0.782822
vt 0.446180 0.781409
vt 0.447538 0.966334
vt 0.266210 0.967747
vt 0.266210 0.781409
vt 0.447538 0.781409
vt 0.447538 0.782822
vt 0.447538 0.967747
vt 0.446180 0.967747
vt 0.264871 0.967747
vt 0.264871 0.966334
vt 0.462452 0.013410
vt 0.264239 0.021912
vt 0.462452 0.325357
vt 0.451740 0.021912
vt 0.252546 0.325357
vt 0.451740 0.317304
vt 0.252546 0.013410
vt 0.264239 0.317304
vt 0.474481 0.328366
vt 0.466243 0.328535
vt 0.471505 0.338385
vt 0.261773 0.361100
vt 0.451200 0.726195
vt 0.460530 0.750979
vt 0.249700 0.761387
vt 0.234268 0.746169
vt 0.234268 0.751144
vt 0.008427 0.751354
vt 0.214803 0.726343
vt 0.242391 0.754635
vt 0.249700 0.987764
vt 0.236681 0.332667
vt 0.232263 0.333544
vt 0.238340 0.016654
vt 0.248227 0.328535
vt 0.005129 0.332898
vt 0.025376 0.361021
vt 0.707054 0.746175
vt 0.707054 0.751144
vt 0.478704 0.751144
vt 0.687589 0.726279
vt 0.943237 0.746320
vt 0.943866 0.750934
vt 0.715093 0.751144
vt 0.923981 0.726310
vt 0.463273 0.987764
vt 0.472336 0.994517
vt 0.463273 0.761387
vt 0.239021 0.002884
vt 0.249660 0.002353
vt 0.461892 0.002421
vt 0.248227 0.010060
vt 0.474062 0.002884
vt 0.474641 0.016653
vt 0.477896 0.327901
vt 0.466243 0.010060
vt 0.940641 0.338650
vt 0.734558 0.360993
vt 0.707880 0.337999
vt 0.498169 0.361025
vt 0.214803 0.361021
vt 0.261773 0.726195
vt 0.451200 0.361100
vt 0.498169 0.726279
vt 0.005701 0.746813
vt 0.025376 0.726343
vt 0.923981 0.360993
vt 0.734558 0.726310
vt 0.687589 0.361025
vt 0.242308 0.746169
vt 0.478704 0.746163
vt 0.947466 0.746320
vt 0.948780 0.338475
vt 0.715093 0.746175
vt 0.242591 0.337373
vt 0.242254 0.751144
vt 0.252657 0.751442
vt 0.244430 0.756836
vt 0.472336 0.746163
vt 0.472336 0.756465
vt 0.472336 0.754403
vt 0.466780 0.755841
vt 0.242429 0.999689
vt 0.242454 0.991830
vt 0.249743 0.991897
vt 0.249642 0.999752
vt 0.247396 0.999564
vt 0.941602 0.334405
vt 0.472232 0.997709
vt 0.469577 0.997709
vt 0.463801 0.997709
vt 0.463643 0.993311
vt 0.710908 0.331132
vt 0.714236 0.338362
vn 0.000000 0.000000 1.000000
vn 0.000000 0.000000 1.000000
vn 0.000000 0.000000 1.000000
vn 0.000000 0.000000 1.000000
vn 0.000000 0.000000 -1.000000
vn 0.000000 0.000000 -1.000000
vn 0.000000 0.000000 -1.000000
vn 0.000000 0.000000 -1.000000
vn 0.000000 -1.000000 0.000000
vn 0.000000 -1.000000 0.000000
vn 0.000000 -1.000000 0.000000
vn 0.000000 -1.000000 0.000000
vn 1.000000 0.000000 0.000000
vn 1.000000 0.000000 0.000000
vn 1.000000 0.000000 0.000000
vn 1.000000 0.000000 0.000000
vn -1.000000 0.000000 0.000000
vn -1.000000 0.000000 0.000000
vn -1.000000 0.000000 0.000000
vn -1.000000 0.000000 0.000000
vn 0.000000 -0.994273 0.106872
vn 0.000000 -0.994273 0.106872
vn 0.000000 -0.994273 0.106872
vn 0.000000 -0.994273 0.106872
vn -0.106872 -0.994273 0.000000
vn -0.106872 -0.994273 0.000000
vn -0.106872 -0.994273 0.000000
vn -0.106872 -0.994273 0.000000
vn 0.000000 -0.994273 -0.106872
vn 0.000000 -0.994273 -0.106872
vn 0.000000 -0.994273 -0.106872
vn 0.000000 -0.994273 -0.106872
vn 0.106872 -0.994273 0.000000
vn 0.106872 -0.994273 0.000000
vn 0.106872 -0.994273 0.000000
vn 0.106872 -0.994273 0.000000
vn 0.000000 0.864818 0.502086
vn -0.011054 0.863763 0.503777
vn 0.011054 0.863763 0.503777
vn 0.502087 0.864817 0.000000
vn 0.503778 0.863763 0.011054
vn 0.503778 0.863763 -0.011054
vn 0.000000 0.864818 -0.502086
vn 0.011054 0.863763 -0.503777
vn -0.011054 0.863763 -0.503777
vn -0.502087 0.864817 0.000000
vn -0.503778 0.863763 -0.011054
vn -0.503778 0.863763 0.011054
vn 0.000000 0.000000 -1.000000
vn 0.000000 0.000000 -1.000000
vn 0.000000 0.000000 -1.000000
vn 0.000000 0.000000 -1.000000
vn 0.000000 0.000000 -1.000000
vn 0.000000 0.000000 -1.000000
vn 0.000000 0.000000 -1.000000
vn 0.000000 0.000000 -1.000000
vn 0.000000 -1.000000 0.000000
vn 0.000000 -1.000000 0.000000
vn 0.000000 -1.000000 0.000000
vn 0.000000 -1.000000 0.000000
vn -1.000000 0.000000 0.000000
vn -1.000000 0.000000 0.000000
vn -1.000000 0.000000 0.000000
vn -1.000000 0.000000 0.000000
vn 0.000000 1.000000 0.000000
vn 0.000000 1.000000 0.000000
vn 0.000000 1.000000 0.000000
vn 0.000000 1.000000 0.000000
vn 1.000000 0.000000 0.000000
vn 1.000000 0.000000 0.000000
vn 1.000000 0.000000 0.000000
vn 1.000000 0.000000 0.000000
vn 1.000000 -0.000000 0.000000
vn 1.000000 -0.000000 0.000000
vn 1.000000 -0.000000 0.000000
vn 1.000000 -0.000000 0.000000
vn 1.000000 -0.000000 0.000000
vn 1.000000 -0.000000 0.000000
vn 1.000000 -0.000000 0.000000
vn 1.000000 -0.000000 0.000000
vn -0.000000 0.000000 1.000000
vn -0.000000 0.000000 1.000000
vn -0.000000 0.000000 1.000000
vn -0.000000 0.000000 1.000000
vn 0.000000 0.000000 1.000000
vn 0.000000 0.000000 1.000000
vn 0.000000 0.000000 1.000000
vn 0.000000 0.000000 1.000000
vn -1.000000 -0.000000 0.000000
vn -1.000000 -0.000000 0.000000
vn -1.000000 -0.000000 0.000000
vn -1.000000 -0.000000 0.000000
vn -1.000000 -0.000000 0.000000
vn -1.000000 -0.000000 0.000000
vn -1.000000 -0.000000 0.000000
vn -1.000000 -0.000000 0.000000
vn 0.000000 1.000000 0.000000
vn 0.000000 1.000000 0.000000
vn 0.000000 1.000000 0.000000
vn 0.000000 1.000000 0.000000
vn 0.000000 0.000000 -1.000000
vn 0.000000 0.000000 -1.000000
vn 0.000000 0.000000 -1.000000
vn 0.000000 0.000000 -1.000000
vn 0.000000 -1.000000 0.000000
vn 0.000000 -1.000000 0.000000
vn 0.000000 -1.000000 0.000000
vn 0.000000 -1.000000 0.000000
vn 0.000000 0.000000 1.000000
vn 0.000000 0.000000 1.000000
vn 0.000000 0.000000 1.000000
vn 0.000000 0.000000 1.000000
vn 0.000000 1.000000 0.000000
vn 0.000000 1.000000 0.000000
vn 0.000000 1.000000 0.000000
vn 0.000000 1.000000 0.000000
vn 0.000000 0.000000 1.000000
vn 0.000000 0.000000 1.000000
vn 0.000000 0.000000 1.000000
vn 0.000000 0.000000 1.000000
vn 0.000000 -1.000000 0.000000
vn 0.000000 -1.000000 0.000000
vn 0.000000 -1.000000 0.000000
vn 0.000000 -1.000000 0.000000
vn 0.000000 0.000000 -1.000000
vn 0.000000 0.000000 -1.000000
vn 0.000000 0.000000 -1.000000
vn 0.000000 0.000000 -1.000000
vn 0.000000 1.000000 0.000000
vn 0.000000 1.000000 0.000000
vn 0.000000 1.000000 0.000000
vn 0.000000 1.000000 0.000000
vn -1.000000 0.000000 0.000000
vn -1.000000 0.000000 0.000000
vn -1.000000 0.000000 0.000000
vn -1.000000 0.000000 0.000000
vn 0.000000 -1.000000 0.000000
vn 0.000000 -1.000000 0.000000
vn 0.000000 -1.000000 0.000000
vn 0.000000 -1.000000 0.000000
vn 1.000000 0.000000 0.000000
vn 1.000000 0.000000 0.000000
vn 1.000000 0.000000 0.000000
vn 1.000000 0.000000 0.000000
vn 0.642867 0.765978 0.000000
vn 0.642867 0.765978 0.000000
vn 0.642867 0.765978 0.000000
vn 0.642867 0.765978 0.000000
vn 0.000000 0.765975 0.642870
vn 0.000000 0.765975 0.642870
vn 0.000000 0.765975 0.642870
vn 0.000000 0.765975 0.642870
vn -0.642867 0.765978 0.000000
vn -0.642867 0.765978 0.000000
vn -0.642867 0.765978 0.000000
vn -0.642867 0.765978 0.000000
vn 0.000000 0.765975 -0.642870
vn 0.000000 0.765975 -0.642870
vn 0.000000 0.765975 -0.642870
vn 0.000000 0.765975 -0.642870
vn 0.000000 0.000000 1.000000
vn 0.000000 0.000000 1.000000
vn 0.000000 0.000000 1.000000
vn 0.000000 0.000000 1.000000
vn 1.000000 0.000000 0.000000
vn 1.000000 0.000000 0.000000
vn 1.000000 0.000000 0.000000
vn 1.000000 0.000000 0.000000
vn 0.000000 0.000000 -1.000000
vn 0.000000 0.000000 -1.000000
vn 0.000000 0.000000 -1.000000
vn 0.000000 0.000000 -1.000000
vn -1.000000 0.000000 0.000000
vn -1.000000 0.000000 0.000000
vn -1.000000 0.000000 0.000000
vn -1.000000 0.000000 0.000000
vn 0.005705 0.999967 -0.005722
vn -0.005705 0.999967 -0.005730
vn -0.005705 0.999967 0.005722
vn 0.005705 0.999967 0.005730
vn -0.668256 0.743931 0.000000
vn -0.668256 0.743931 0.000000
vn -0.668256 0.743931 0.000000
vn -0.668256 0.743931 0.000000
vn 0.000000 0.743932 -0.668256
vn 0.000000 0.743932 -0.668256
vn 0.000000 0.743932 -0.668256
vn 0.000000 0.743932 -0.668256
vn 0.668256 0.743931 0.000000
vn 0.668256 0.743931 0.000000
vn 0.668256 0.743931 0.000000
vn 0.668256 0.743931 0.000000
vn 0.000000 0.743932 0.668256
vn 0.000000 0.743932 0.668256
vn 0.000000 0.743932 0.668256
vn 0.000000 0.743932 0.668256
vn 0.000000 0.000000 -1.000000
vn 0.000000 0.000000 -1.000000
vn 0.000000 0.000000 -1.000000
vn 0.000000 0.000000 -1.000000
vn 1.000000 0.000000 0.000000
vn 1.000000 0.000000 0.000000
vn 1.000000 0.000000 0.000000
vn 1.000000 0.000000 0.000000
vn 0.000000 0.000000 1.000000
vn 0.000000 0.000000 1.000000
vn 0.000000 0.000000 1.000000
vn 0.000000 0.000000 1.000000
vn -1.000000 0.000000 0.000000
vn -1.000000 0.000000 0.000000
vn -1.000000 0.000000 0.000000
vn -1.000000 0.000000 0.000000
vn 0.053589 0.997124 -0.053589
vn 0.106872 0.994273 0.000000
vn 0.106872 0.994273 0.000000
vn 0.053589 0.997124 0.053589
vn 0.053589 0.997124 0.053589
vn 0.053589 0.997124 -0.053589
vn -1.000000 -0.000000 0.000000
vn -1.000000 -0.000000 0.000000
vn 0.000000 -0.998027 -0.062779
vn 0.000000 -0.998028 -0.062779
vn 0.000000 -0.998028 -0.062779
vn 0.000000 -0.998027 -0.062779
vn 0.000000 -0.998027 -0.062779
vn 0.000000 -0.998027 -0.062779
vn -0.053589 0.997124 -0.053589
vn 0.000000 0.994273 -0.106872
vn 0.000000 0.994273 -0.106872
vn -0.053589 0.997124 -0.053589
vn 0.000000 0.000000 1.000000
vn 0.000000 0.000000 1.000000
vn -0.062779 -0.998028 0.000000
vn -0.062779 -0.998028 0.000000
vn -0.062779 -0.998028 0.000000
vn -0.062779 -0.998028 0.000000
vn -0.062779 -0.998028 0.000000
vn -0.062779 -0.998028 0.000000
vn 0.062779 -0.998028 0.000000
vn 0.062779 -0.998028 0.000000
vn 0.062779 -0.998028 0.000000
vn 0.062779 -0.998028 0.000000
vn 0.062779 -0.998028 0.000000
vn 0.062779 -0.998028 0.000000
vn 0.000000 0.000000 -1.000000
vn 0.000000 0.000000 -1.000000
vn 0.000000 0.994273 0.106872
vn 0.000000 0.994273 0.106872
vn -0.053589 0.997124 0.053589
vn -0.053589 0.997124 0.053589
vn 1.000000 -0.000000 0.000000
vn 1.000000 -0.000000 0.000000
vn 0.000000 -0.998027 0.062779
vn 0.000000 -0.998028 0.062779
vn 0.000000 -0.998028 0.062779
vn 0.000000 -0.998027 0.062779
vn 0.000000 -0.998027 0.062779
vn 0.000000 -0.998027 0.062779
vn -0.106872 0.994273 0.000000
vn -0.106872 0.994273 0.000000
vn -0.707091 0.006640 0.707092
vn -0.707091 0.006640 0.707092
vn -0.707099 -0.004643 0.707099
vn -0.707099 -0.004643 0.707099
vn 0.707091 0.006640 0.707092
vn 0.707091 0.006640 0.707092
vn 0.707099 -0.004644 0.707099
vn 0.707099 -0.004644 0.707099
vn -0.707099 -0.004643 -0.707099
vn -0.707099 -0.004643 -0.707099
vn -0.707091 0.006640 -0.707092
vn -0.707091 0.006640 -0.707092
vn 0.707099 -0.004643 -0.707099
vn 0.707099 -0.004643 -0.707099
vn 0.707091 0.006640 -0.707092
vn 0.707091 0.006640 -0.707092
vn 0.031451 0.999010 -0.031452
vn -0.574811 -0.582400 0.574808
vn -0.574811 -0.582400 0.574807
vn -0.574811 -0.582400 0.574808
vn -0.031451 0.999011 -0.031450
vn 0.574811 -0.582401 0.574806
vn 0.574811 -0.582401 0.574806
vn 0.574811 -0.582401 0.574806
vn -0.574810 -0.582399 -0.574808
vn -0.574810 -0.582399 -0.574809
vn -0.574810 -0.582399 -0.574808
vn 0.031451 0.999011 0.031450
vn 0.574811 -0.582400 -0.574808
vn 0.574811 -0.582400 -0.574807
vn 0.574811 -0.582400 -0.574808
vn -0.031451 0.999010 0.031452
vn -0.001138 0.999999 0.000000
vn -0.001138 0.999999 0.000000
vn -0.001138 0.999999 0.000000
vn -0.001138 0.999999 0.000000
vn -0.001138 0.999999 0.000000
vn -0.001138 0.999999 0.000000
vn 0.001138 0.999999 0.000000
vn 0.001138 0.999999 0.000000
vn 0.001138 0.999999 0.000000
vn 0.001138 0.999999 0.000000
vn 0.001138 0.999999 0.000000
vn 0.001138 0.999999 0.000000
vn 0.000000 0.999999 0.001137
vn 0.000000 0.999999 0.001137
vn 0.000000 0.999999 0.001137
vn 0.000000 0.999999 0.001137
vn 0.000000 0.999999 0.001137
vn 0.000000 0.999999 0.001137
vn 0.000000 0.999999 -0.001136
vn 0.000000 0.999999 -0.001136
vn 0.000000 0.999999 -0.001136
vn 0.000000 0.999999 -0.001136
vn 0.000000 0.999999 -0.001136
vn 0.000000 0.999999 -0.001136
s off
g lantern_R2
usemtl initialShadingGroup
f 41/1/1 42/2/2 43/3/3 44/4/4
f 17/5/5 18/6/6 19/7/7 20/8/8
f 1/9/9 2/10/10 3/11/11 4/12/12
f 38/13/13 37/14/14 39/15/15 40/16/16
f 33/17/17 34/18/18 35/19/19 36/20/20
f 2/10/21 1/9/22 6/46/23 5/48/24
f 3/11/25 2/10/26 5/48/27 7/50/28
f 4/12/29 3/11/30 7/50/31 8/52/32
f 1/9/33 4/12/34 8/52/35 6/46/36
s 1
f 57/30/37 54/38/38 60/35/39
f 61/31/40 59/40/41 64/36/42
f 65/32/43 63/42/44 68/37/45
f 56/33/46 67/44/47 55/34/48
s 2
f 102/108/49 107/128/50 15/92/51 14/102/52
f 100/91/53 97/76/54 13/79/55 16/101/56
s off
f 13/79/57 14/102/58 18/6/59 17/5/60
f 14/102/61 15/92/62 19/7/63 18/6/64
f 15/92/65 16/101/66 20/8/67 19/7/68
f 16/101/69 13/79/70 17/5/71 20/8/72
s 3
f 108/93/73 101/72/74 23/75/75 21/103/76
f 89/105/77 86/89/78 22/94/79 24/98/80
s 4
f 87/55/81 88/113/82 27/57/83 26/97/84
f 81/104/85 78/109/86 25/56/87 28/96/88
s 5
f 79/67/89 80/60/90 31/63/91 30/95/92
f 93/99/93 99/70/94 29/71/95 32/100/96
s off
f 29/71/97 30/95/98 34/18/99 33/17/100
f 30/95/101 31/63/102 35/19/103 34/18/104
f 31/63/105 32/100/106 36/20/107 35/19/108
f 32/100/109 29/71/110 33/17/111 36/20/112
f 22/94/113 21/103/114 37/14/115 38/13/116
f 21/103/117 23/75/118 39/15/119 37/14/120
f 23/75/121 24/98/122 40/16/123 39/15/124
f 24/98/125 22/94/126 38/13/127 40/16/128
f 25/56/129 26/97/130 42/2/131 41/1/132
f 26/97/133 27/57/134 43/3/135 42/2/136
f 27/57/137 28/96/138 44/4/139 43/3/140
f 28/96/141 25/56/142 41/1/143 44/4/144
f 45/25/145 46/22/146 50/23/147 49/26/148
f 46/22/149 45/25/150 48/29/151 47/21/152
f 47/21/153 48/29/154 51/27/155 52/24/156
f 49/26/157 50/23/158 52/24/159 51/27/160
f 9/59/161 10/82/162 46/22/163 47/21/164
f 10/82/165 11/80/166 50/23/167 46/22/168
f 11/80/169 12/65/170 52/24/171 50/23/172
f 12/65/173 9/59/174 47/21/175 52/24/176
s 1
f 56/33/46 57/30/37 61/31/40 65/32/43
f 55/34/48 54/38/38 57/30/37 56/33/46
f 60/35/39 59/40/41 61/31/40 57/30/37
f 64/36/42 63/42/44 65/32/43 61/31/40
f 68/37/45 67/44/47 56/33/46 65/32/43
f 53/28/177 54/38/38 55/34/48
f 58/39/178 59/40/41 60/35/39
f 62/41/179 63/42/44 64/36/42
f 66/43/180 67/44/47 68/37/45
s off
f 69/86/181 70/51/182 75/49/183 76/69/184
f 70/51/185 69/86/186 72/90/187 71/45/188
f 71/45/189 72/90/190 74/54/191 73/47/192
f 73/47/193 74/54/194 76/69/195 75/49/196
f 70/51/197 71/45/198 5/48/199 6/46/200
f 71/45/201 73/47/202 7/50/203 5/48/204
f 73/47/205 75/49/206 8/52/207 7/50/208
f 75/49/209 70/51/210 6/46/211 8/52/212
s 6
f 77/66/213 79/67/214 99/68/215 98/83/216 69/86/217 76/69/218
s 4
f 78/109/86 87/55/81 26/97/84 25/56/87
s 5
f 80/60/90 84/61/219 94/62/220 93/99/93 32/100/96 31/63/91
s off
f 83/112/221 82/111/222 92/58/223 91/116/224 10/82/225 9/59/226
s 6
f 85/53/227 87/55/228 78/109/229 77/66/213 76/69/218 74/54/230
s 3
f 86/89/78 108/93/73 21/103/76 22/94/79
s 4
f 88/113/82 92/58/231 82/111/232 81/104/85 28/96/88 27/57/83
s off
f 91/116/233 90/115/234 105/81/235 104/126/236 11/80/237 10/82/238
f 95/119/239 94/118/240 84/64/241 83/112/242 9/59/243 12/65/244
s 2
f 97/76/54 96/77/245 103/78/246 102/108/49 14/102/52 13/79/55
s 6
f 98/83/216 100/84/247 107/85/248 106/87/249 72/90/250 69/86/217
s 5
f 99/70/94 79/67/89 30/95/92 29/71/95
s 3
f 101/72/74 105/73/251 90/74/252 89/105/77 24/98/80 23/75/75
s off
f 104/126/253 103/125/254 96/120/255 95/119/256 12/65/257 11/80/258
s 6
f 106/87/249 108/88/259 86/89/260 85/53/227 74/54/230 72/90/250
s 2
f 107/128/50 100/91/53 16/101/56 15/92/51
s 7
f 79/67/261 78/109/262 81/104/263 80/60/264
s 8
f 87/55/265 86/89/266 89/105/267 88/113/268
s 9
f 93/106/269 97/76/270 100/91/271 99/107/272
s 10
f 102/108/273 101/72/274 108/93/275 107/128/276
s 7
f 77/66/277 78/109/262 79/67/261
f 80/110/264 81/104/263 82/111/278 83/112/279 84/64/280
s 8
f 85/53/281 86/89/266 87/55/265
f 88/113/268 89/114/267 90/115/282 91/116/283 92/58/284
s 9
f 93/117/269 94/118/285 95/119/286 96/120/287 97/121/270
f 98/122/288 99/107/272 100/91/271
s 10
f 101/123/274 102/124/273 103/125/289 104/126/290 105/81/291
f 106/127/292 107/128/276 108/93/275
s off
f 53/28/293 55/34/294 67/44/295 66/43/296 51/27/297 48/29/298
f 62/41/299 64/36/300 59/40/301 58/39/302 45/25/303 49/26/304
f 53/28/305 48/29/306 45/25/307 58/39/308 60/35/309 54/38/310
f 66/43/311 68/37/312 63/42/313 62/41/314 49/26/315 51/27/316
g default
v 4.728139 0.000971 1.786809
v 4.813848 0.000971 1.809548
v 4.681645 0.528093 2.099846
v 4.699044 0.528093 2.104463
v 4.720716 0.124693 1.814787
v 4.806425 0.124693 1.837526
v 4.706287 0.315056 1.890447
v 4.781450 0.315056 1.910389
v 4.683500 0.457911 2.009783
v 4.742081 0.457911 2.025325
vt 0.000000 0.000000
vt 1.000000 0.000000
vt 0.000000 1.000000
vt 1.000000 1.000000
vt 0.000000 0.535706
vt 1.000000 0.535706
vt 0.000000 0.804976
vt 1.000000 0.804976
vt 0.000000 0.952554
vt 1.000000 0.952554
vn -0.188070 -0.679815 0.708859
vn -0.188070 -0.679815 0.708859
vn -0.160420 -0.780173 0.604644
vn -0.160420 -0.780173 0.604644
vn -0.249698 -0.227809 0.941145
vn -0.243255 -0.316532 0.916861
vn -0.243255 -0.316532 0.916861
vn -0.249698 -0.227809 0.941145
vn -0.222714 -0.495723 0.839438
vn -0.222714 -0.495723 0.839439
s 1
g grassLeaf_short
usemtl lambert2SG
f 117/137/317 118/138/318 112/132/319 111/131/320
f 110/130/321 114/134/322 113/133/323 109/129/324
f 113/133/323 114/134/322 116/136/325 115/135/326
f 115/135/326 116/136/325 118/138/318 117/137/317
g default
v 4.895228 0.001956 1.786025
v 4.983902 0.001956 1.786025
v 4.930565 0.999719 1.974909
v 4.948565 0.999719 1.974909
v 4.895228 0.211316 1.805810
v 4.983902 0.211316 1.805810
v 4.895228 0.385710 1.841982
v 4.983902 0.385710 1.841982
v 4.900683 0.634868 1.923748
v 4.978447 0.634868 1.923748
v 4.909261 0.865486 1.978080
v 4.969869 0.865486 1.978080
vt 0.000000 0.000000
vt 1.000000 0.000000
vt 0.000000 1.000000
vt 1.000000 1.000000
vt 0.000000 0.209830
vt 1.000000 0.209830
vt 0.000000 0.535706
vt 1.000000 0.535706
vt 0.000000 0.804976
vt 1.000000 0.804976
vt 0.000000 0.952554
vt 1.000000 0.952554
vn 0.000000 -0.174472 0.984662
vn 0.000000 -0.174472 0.984662
vn 0.000000 0.023620 0.999721
vn 0.000000 0.023620 0.999721
vn 0.000000 -0.094083 0.995564
vn 0.000000 -0.094083 0.995564
vn 0.000000 -0.144289 0.989536
vn 0.000000 -0.144289 0.989536
vn 0.000000 -0.266221 0.963912
vn 0.000000 -0.266221 0.963912
vn 0.000000 -0.277405 0.960753
vn 0.000000 -0.277405 0.960753
s 1
g grassLeaf_tall
usemtl lambert2SG
f 129/149/327 130/150/328 122/142/329 121/141/330
f 119/139/331 120/140/332 124/144/333 123/143/334
f 123/143/334 124/144/333 126/146/335 125/145/336
f 125/145/336 126/146/335 128/148/337 127/147/338
f 127/147/338 128/148/337 130/150/328 129/149/327
g default
v 4.934893 0.000971 1.820851
v 5.017153 0.000971 1.787739
v 5.085111 0.528093 2.099399
v 5.101809 0.528093 2.092677
v 4.945702 0.124693 1.847703
v 5.027962 0.124693 1.814591
v 4.979453 0.315056 1.916939
v 5.051591 0.315056 1.887901
v 5.032664 0.457911 2.026158
v 5.088888 0.457911 2.003526
vt 0.000000 0.000000
vt 1.000000 0.000000
vt 0.000000 1.000000
vt 1.000000 1.000000
vt 0.000000 0.535706
vt 1.000000 0.535706
vt 0.000000 0.804976
vt 1.000000 0.804976
vt 0.000000 0.952554
vt 1.000000 0.952554
vn 0.273858 -0.679815 0.680333
vn 0.273858 -0.679815 0.680333
vn 0.233596 -0.780173 0.580312
vn 0.233596 -0.780173 0.580312
vn 0.363598 -0.227809 0.903272
vn 0.354217 -0.316532 0.879965
vn 0.354217 -0.316532 0.879965
vn 0.363598 -0.227809 0.903272
vn 0.324305 -0.495723 0.805658
vn 0.324306 -0.495723 0.805658
s 1
g grassLeaf_short1
usemtl lambert2SG
f 139/159/339 140/160/340 134/154/341 133/153/342
f 132/152/343 136/156/344 135/155/345 131/151/346
f 135/155/345 136/156/344 138/158/347 137/157/348
f 137/157/348 138/158/347 140/160/340 139/159/339
g default
v 4.785762 0.001956 1.721321
v 4.807478 0.001956 1.807295
v 4.611284 0.999719 1.801837
v 4.615692 0.999719 1.819290
v 4.766580 0.211316 1.726166
v 4.788295 0.211316 1.812140
v 4.731509 0.385710 1.735024
v 4.753224 0.385710 1.820998
v 4.653569 0.634868 1.760337
v 4.672612 0.634868 1.835733
v 4.602992 0.865486 1.781959
v 4.617834 0.865486 1.840721
vt 0.000000 0.000000
vt 1.000000 0.000000
vt 0.000000 1.000000
vt 1.000000 1.000000
vt 0.000000 0.209830
vt 1.000000 0.209830
vt 0.000000 0.535706
vt 1.000000 0.535706
vt 0.000000 0.804976
vt 1.000000 0.804976
vt 0.000000 0.952554
vt 1.000000 0.952554
vn -0.954681 -0.174472 0.241133
vn -0.954681 -0.174472 0.241133
vn -0.969281 0.023620 0.244820
vn -0.969281 0.023620 0.244820
vn -0.965251 -0.094083 0.243802
vn -0.965251 -0.094083 0.243802
vn -0.959405 -0.144289 0.242326
vn -0.959405 -0.144289 0.242326
vn -0.934562 -0.266221 0.236051
vn -0.934562 -0.266221 0.236051
vn -0.931499 -0.277405 0.235277
vn -0.931499 -0.277405 0.235277
s 1
g grassLeaf_tall1
usemtl lambert2SG
f 151/171/349 152/172/350 144/164/351 143/163/352
f 141/161/353 142/162/354 146/166/355 145/165/356
f 145/165/356 146/166/355 148/168/357 147/167/358
f 147/167/358 148/168/357 150/170/359 149/169/360
f 149/169/360 150/170/359 152/172/350 151/171/349
g default
v 4.723940 0.012268 1.943309
v 4.766053 0.012268 1.865273
v 4.906946 0.793158 2.001916
v 4.915495 0.793158 1.986075
v 4.741352 0.176122 1.952705
v 4.783465 0.176122 1.874670
v 4.773184 0.312610 1.969884
v 4.815297 0.312610 1.891848
v 4.847732 0.507612 2.003915
v 4.884663 0.507612 1.935481
v 4.899619 0.688103 2.022170
v 4.928403 0.688103 1.968833
vt 0.000000 0.000000
vt 1.000000 0.000000
vt 0.000000 1.000000
vt 1.000000 1.000000
vt 0.000000 0.209830
vt 1.000000 0.209830
vt 0.000000 0.535706
vt 1.000000 0.535706
vt 0.000000 0.804976
vt 1.000000 0.804976
vt 0.000000 0.952554
vt 1.000000 0.952554
vn 0.858308 -0.220811 0.463195
vn 0.858308 -0.220811 0.463195
vn 0.879629 0.030175 0.474702
vn 0.879629 0.030175 0.474702
vn 0.873684 -0.119877 0.471493
vn 0.873684 -0.119877 0.471493
vn 0.865143 -0.183160 0.466884
vn 0.865143 -0.183160 0.466884
vn 0.829873 -0.332779 0.447850
vn 0.829873 -0.332779 0.447850
vn 0.825635 -0.346123 0.445563
vn 0.825635 -0.346123 0.445563
s 1
g grassLeaf_tallShortened
usemtl lambert2SG
f 163/183/361 164/184/362 156/176/363 155/175/364
f 153/173/365 154/174/366 158/178/367 157/177/368
f 157/177/368 158/178/367 160/180/369 159/179/370
f 159/179/370 160/180/369 162/182/371 161/181/372
f 161/181/372 162/182/371 164/184/362 163/183/361
g default
v 4.982552 0.020202 1.934344
v 4.923595 0.020202 2.000579
v 4.724148 0.721275 1.751639
v 4.712179 0.721275 1.765085
v 4.960931 0.184753 1.915099
v 4.901973 0.184753 1.981334
v 4.899915 0.437935 1.868090
v 4.848212 0.437935 1.926176
v 4.803691 0.627933 1.793922
v 4.763394 0.627933 1.839193
vt 0.000000 0.000000
vt 1.000000 0.000000
vt 0.000000 1.000000
vt 1.000000 1.000000
vt 0.000000 0.535706
vt 1.000000 0.535706
vt 0.000000 0.804976
vt 1.000000 0.804976
vt 0.000000 0.952554
vt 1.000000 0.952554
vn -0.612799 -0.571787 -0.545470
vn -0.612799 -0.571787 -0.545470
vn -0.544871 -0.684022 -0.485005
vn -0.544871 -0.684022 -0.485005
vn -0.735654 -0.173250 -0.654827
vn -0.724495 -0.243352 -0.644893
vn -0.724495 -0.243352 -0.644893
vn -0.735654 -0.173250 -0.654827
vn -0.686407 -0.394382 -0.610990
vn -0.686407 -0.394382 -0.610990
s 1
g grassLeaf_shortLengthened
usemtl lambert2SG
f 173/193/373 174/194/374 168/188/375 167/187/376
f 166/186/377 170/190/378 169/189/379 165/185/380
f 169/189/379 170/190/378 172/192/381 171/191/382
f 171/191/382 172/192/381 174/194/374 173/193/373
g default
v 4.722249 0.000971 1.643062
v 4.744493 0.000971 1.728901
v 4.426677 0.528093 1.756163
v 4.431193 0.528093 1.773588
v 4.694228 0.124693 1.650324
v 4.716473 0.124693 1.736162
v 4.621223 0.315056 1.674879
v 4.640730 0.315056 1.750156
v 4.506062 0.457911 1.713583
v 4.521266 0.457911 1.772253
vt 0.000000 0.000000
vt 1.000000 0.000000
vt 0.000000 1.000000
vt 1.000000 1.000000
vt 0.000000 0.535706
vt 1.000000 0.535706
vt 0.000000 0.804976
vt 1.000000 0.804976
vt 0.000000 0.952554
vt 1.000000 0.952554
vn -0.709933 -0.679815 0.183977
vn -0.709933 -0.679815 0.183977
vn -0.605560 -0.780173 0.156929
vn -0.605560 -0.780173 0.156929
vn -0.942570 -0.227809 0.244264
vn -0.918249 -0.316532 0.237962
vn -0.918249 -0.316532 0.237962
vn -0.942570 -0.227809 0.244264
vn -0.840709 -0.495723 0.217867
vn -0.840710 -0.495723 0.217867
s 1
g grassLeaf_short2
usemtl lambert2SG
f 183/203/383 184/204/384 178/198/385 177/197/386
f 176/196/387 180/200/388 179/199/389 175/195/390
f 179/199/389 180/200/388 182/202/391 181/201/392
f 181/201/392 182/202/391 184/204/384 183/203/383
